<?xml version="1.0" standalone="no"?>
<!DOCTYPE svg PUBLIC "-//W3C//DTD SVG 20010904//EN"
 "http://www.w3.org/TR/2001/REC-SVG-20010904/DTD/svg10.dtd">
<svg version="1.0" xmlns="http://www.w3.org/2000/svg"
 width="512.000000pt" height="512.000000pt" viewBox="0 0 512.000000 512.000000"
 preserveAspectRatio="xMidYMid meet">

<g transform="translate(0.000000,512.000000) scale(0.100000,-0.100000)"
fill="#000000" stroke="none">
<path d="M2370 5114 c-19 -2 -78 -9 -130 -15 -791 -90 -1522 -586 -1924 -1305
-146 -262 -252 -588 -297 -914 -18 -125 -18 -515 0 -640 105 -759 508 -1404
1138 -1820 125 -83 384 -213 527 -265 131 -48 371 -108 521 -131 180 -27 541
-25 730 4 319 50 597 145 879 301 67 36 139 84 161 106 73 72 83 174 24 254
-42 59 -98 84 -173 79 -52 -3 -74 -11 -146 -55 -160 -96 -331 -171 -508 -223
-84 -25 -294 -69 -303 -64 -9 5 17 141 51 266 72 262 196 508 373 743 73 96
274 300 373 377 228 180 513 324 777 393 108 28 248 57 253 52 6 -6 -44 -239
-69 -322 -54 -176 -124 -335 -220 -495 -44 -72 -52 -94 -55 -146 -5 -76 20
-131 79 -174 72 -52 161 -49 236 6 59 45 218 342 298 558 138 375 187 840 130
1236 -21 143 -82 385 -130 516 -47 128 -168 374 -239 487 -403 639 -1054 1061
-1808 1173 -98 14 -474 27 -548 18z m548 -425 c344 -56 694 -208 964 -421 l57
-44 -690 -690 -689 -689 -255 255 -254 255 66 85 c273 351 466 799 518 1205 4
28 8 56 10 63 5 15 98 9 273 -19z m-682 -16 c-2 -10 -12 -56 -21 -103 -38
-194 -144 -461 -257 -649 -57 -96 -184 -271 -196 -271 -4 0 -136 129 -294 288
l-287 287 82 62 c237 178 521 311 808 377 131 31 172 33 165 9z m-796 -1344
c-58 -51 -263 -183 -358 -233 -171 -88 -412 -170 -599 -204 -53 -9 -53 -9 -53
17 0 14 11 74 25 134 65 287 198 574 378 814 l62 82 290 -290 290 -290 -35
-30z m2922 416 c173 -263 284 -556 333 -880 8 -55 15 -123 15 -151 l0 -51 -57
-7 c-409 -47 -912 -263 -1247 -533 l-68 -56 -247 247 -246 246 689 689 689
689 30 -36 c17 -20 66 -91 109 -157z m-2776 -1874 l-690 -690 -44 57 c-252
320 -413 740 -446 1163 l-6 75 92 13 c126 18 349 74 483 123 237 85 529 249
720 402 l69 57 256 -256 255 -255 -689 -689z m1223 155 l244 -245 -59 -73
c-261 -323 -453 -761 -520 -1185 l-18 -113 -50 0 c-69 0 -229 25 -351 54 -290
70 -535 185 -785 366 l-89 65 687 688 c378 378 689 687 692 687 3 0 115 -110
249 -244z"/>
</g>
</svg>
