<svg id="visual" viewBox="0 0 900 2400" width="900" height="2400" xmlns="http://www.w3.org/2000/svg" xmlns:xlink="http://www.w3.org/1999/xlink" version="1.1"><path d="M50 0L50.8 21C51.7 42 53.3 84 52 126.2C50.7 168.3 46.3 210.7 45.7 252.8C45 295 48 337 48.5 379C49 421 47 463 44.7 505.2C42.3 547.3 39.7 589.7 39.2 631.8C38.7 674 40.3 716 40.8 758C41.3 800 40.7 842 42.2 884.2C43.7 926.3 47.3 968.7 49 1010.8C50.7 1053 50.3 1095 48 1137C45.7 1179 41.3 1221 41.8 1263C42.3 1305 47.7 1347 49 1389.2C50.3 1431.3 47.7 1473.7 45.3 1515.8C43 1558 41 1600 42.2 1642C43.3 1684 47.7 1726 49.7 1768.2C51.7 1810.3 51.3 1852.7 50.8 1894.8C50.3 1937 49.7 1979 48.2 2021C46.7 2063 44.3 2105 42.7 2147.2C41 2189.3 40 2231.7 39.8 2273.8C39.7 2316 40.3 2358 40.7 2379L41 2400L0 2400L0 2379C0 2358 0 2316 0 2273.8C0 2231.7 0 2189.3 0 2147.2C0 2105 0 2063 0 2021C0 1979 0 1937 0 1894.8C0 1852.7 0 1810.3 0 1768.2C0 1726 0 1684 0 1642C0 1600 0 1558 0 1515.8C0 1473.7 0 1431.3 0 1389.2C0 1347 0 1305 0 1263C0 1221 0 1179 0 1137C0 1095 0 1053 0 1010.8C0 968.7 0 926.3 0 884.2C0 842 0 800 0 758C0 716 0 674 0 631.8C0 589.7 0 547.3 0 505.2C0 463 0 421 0 379C0 337 0 295 0 252.8C0 210.7 0 168.3 0 126.2C0 84 0 42 0 21L0 0Z" fill="#00AACF" stroke-linecap="round" stroke-linejoin="miter"></path></svg>