<svg id="visual" viewBox="0 0 900 2400" width="900" height="2400" xmlns="http://www.w3.org/2000/svg" xmlns:xlink="http://www.w3.org/1999/xlink" version="1.1"><path d="M407 0L400.3 21C393.7 42 380.3 84 387.7 126.2C395 168.3 423 210.7 422.8 252.8C422.7 295 394.3 337 392 379C389.7 421 413.3 463 415.7 505.2C418 547.3 399 589.7 385.2 631.8C371.3 674 362.7 716 375.3 758C388 800 422 842 430.3 884.2C438.7 926.3 421.3 968.7 425.5 1010.8C429.7 1053 455.3 1095 448 1137C440.7 1179 400.3 1221 399 1263C397.7 1305 435.3 1347 448 1389.2C460.7 1431.3 448.3 1473.7 431 1515.8C413.7 1558 391.3 1600 393 1642C394.7 1684 420.3 1726 426.7 1768.2C433 1810.3 420 1852.7 417.2 1894.8C414.3 1937 421.7 1979 414 2021C406.3 2063 383.7 2105 374 2147.2C364.3 2189.3 367.7 2231.7 383.3 2273.8C399 2316 427 2358 441 2379L455 2400L0 2400L0 2379C0 2358 0 2316 0 2273.8C0 2231.7 0 2189.3 0 2147.2C0 2105 0 2063 0 2021C0 1979 0 1937 0 1894.8C0 1852.7 0 1810.3 0 1768.2C0 1726 0 1684 0 1642C0 1600 0 1558 0 1515.8C0 1473.7 0 1431.3 0 1389.2C0 1347 0 1305 0 1263C0 1221 0 1179 0 1137C0 1095 0 1053 0 1010.8C0 968.7 0 926.3 0 884.2C0 842 0 800 0 758C0 716 0 674 0 631.8C0 589.7 0 547.3 0 505.2C0 463 0 421 0 379C0 337 0 295 0 252.8C0 210.7 0 168.3 0 126.2C0 84 0 42 0 21L0 0Z" fill="#00AACF" stroke-linecap="round" stroke-linejoin="miter"></path></svg>