<svg id="visual" viewBox="0 0 900 600" width="900" height="600" xmlns="http://www.w3.org/2000/svg" xmlns:xlink="http://www.w3.org/1999/xlink" version="1.1"><path d="M464 0L465 10C466 20 468 40 465.8 60C463.7 80 457.3 100 447.7 120C438 140 425 160 425.8 180C426.7 200 441.3 220 439 240C436.7 260 417.3 280 406.3 300C395.3 320 392.7 340 387.3 360C382 380 374 400 379.2 420C384.3 440 402.7 460 420 480C437.3 500 453.7 520 456.7 540C459.7 560 449.3 580 444.2 590L439 600L0 600L0 590C0 580 0 560 0 540C0 520 0 500 0 480C0 460 0 440 0 420C0 400 0 380 0 360C0 340 0 320 0 300C0 280 0 260 0 240C0 220 0 200 0 180C0 160 0 140 0 120C0 100 0 80 0 60C0 40 0 20 0 10L0 0Z" fill="#00AACF" stroke-linecap="round" stroke-linejoin="miter"></path></svg>