<svg id="visual" viewBox="0 0 900 2400" width="900" height="2400" xmlns="http://www.w3.org/2000/svg" xmlns:xlink="http://www.w3.org/1999/xlink" version="1.1"><path d="M147 0L139.3 13.3C131.7 26.7 116.3 53.3 118.3 80C120.3 106.7 139.7 133.3 144 160C148.3 186.7 137.7 213.3 138.3 240C139 266.7 151 293.3 143.2 320C135.3 346.7 107.7 373.3 106.8 400C106 426.7 132 453.3 132 480C132 506.7 106 533.3 105.2 560C104.3 586.7 128.7 613.3 147.8 640C167 666.7 181 693.3 180 720C179 746.7 163 773.3 146.3 800C129.7 826.7 112.3 853.3 100 880C87.7 906.7 80.3 933.3 88.7 960C97 986.7 121 1013.3 127.2 1040C133.3 1066.7 121.7 1093.3 129 1120C136.3 1146.7 162.7 1173.3 159 1200C155.3 1226.7 121.7 1253.3 115.8 1280C110 1306.7 132 1333.3 144.8 1360C157.7 1386.7 161.3 1413.3 166 1440C170.7 1466.7 176.3 1493.3 167.7 1520C159 1546.7 136 1573.3 128.5 1600C121 1626.7 129 1653.3 137.5 1680C146 1706.7 155 1733.3 150.8 1760C146.7 1786.7 129.3 1813.3 121.5 1840C113.7 1866.7 115.3 1893.3 109.3 1920C103.3 1946.7 89.7 1973.3 97.5 2000C105.3 2026.7 134.7 2053.3 134.5 2080C134.3 2106.7 104.7 2133.3 96.7 2160C88.7 2186.7 102.3 2213.3 114.7 2240C127 2266.7 138 2293.3 146.3 2320C154.7 2346.7 160.3 2373.3 163.2 2386.7L166 2400L0 2400L0 2386.7C0 2373.3 0 2346.7 0 2320C0 2293.3 0 2266.7 0 2240C0 2213.3 0 2186.7 0 2160C0 2133.3 0 2106.7 0 2080C0 2053.3 0 2026.7 0 2000C0 1973.3 0 1946.7 0 1920C0 1893.3 0 1866.7 0 1840C0 1813.3 0 1786.7 0 1760C0 1733.3 0 1706.7 0 1680C0 1653.3 0 1626.7 0 1600C0 1573.3 0 1546.7 0 1520C0 1493.3 0 1466.7 0 1440C0 1413.3 0 1386.7 0 1360C0 1333.3 0 1306.7 0 1280C0 1253.3 0 1226.7 0 1200C0 1173.3 0 1146.7 0 1120C0 1093.3 0 1066.7 0 1040C0 1013.3 0 986.7 0 960C0 933.3 0 906.7 0 880C0 853.3 0 826.7 0 800C0 773.3 0 746.7 0 720C0 693.3 0 666.7 0 640C0 613.3 0 586.7 0 560C0 533.3 0 506.7 0 480C0 453.3 0 426.7 0 400C0 373.3 0 346.7 0 320C0 293.3 0 266.7 0 240C0 213.3 0 186.7 0 160C0 133.3 0 106.7 0 80C0 53.3 0 26.7 0 13.3L0 0Z" fill="#00AACF" stroke-linecap="round" stroke-linejoin="miter"></path></svg>