<svg id="visual" viewBox="0 0 900 2400" width="900" height="2400" xmlns="http://www.w3.org/2000/svg" xmlns:xlink="http://www.w3.org/1999/xlink" version="1.1"><path d="M91 0L89.5 21C88 42 85 84 86.7 126.2C88.3 168.3 94.7 210.7 94.7 252.8C94.7 295 88.3 337 87.8 379C87.3 421 92.7 463 93.2 505.2C93.7 547.3 89.3 589.7 86.2 631.8C83 674 81 716 83.8 758C86.7 800 94.3 842 96.2 884.2C98 926.3 94 968.7 95 1010.8C96 1053 102 1095 100.5 1137C99 1179 90 1221 89.7 1263C89.3 1305 97.7 1347 100.5 1389.2C103.3 1431.3 100.7 1473.7 96.8 1515.8C93 1558 88 1600 88.3 1642C88.7 1684 94.3 1726 95.7 1768.2C97 1810.3 94 1852.7 93.3 1894.8C92.7 1937 94.3 1979 92.7 2021C91 2063 86 2105 83.8 2147.2C81.7 2189.3 82.3 2231.7 85.8 2273.8C89.3 2316 95.7 2358 98.8 2379L102 2400L0 2400L0 2379C0 2358 0 2316 0 2273.8C0 2231.7 0 2189.3 0 2147.2C0 2105 0 2063 0 2021C0 1979 0 1937 0 1894.8C0 1852.7 0 1810.3 0 1768.2C0 1726 0 1684 0 1642C0 1600 0 1558 0 1515.8C0 1473.7 0 1431.3 0 1389.2C0 1347 0 1305 0 1263C0 1221 0 1179 0 1137C0 1095 0 1053 0 1010.8C0 968.7 0 926.3 0 884.2C0 842 0 800 0 758C0 716 0 674 0 631.8C0 589.7 0 547.3 0 505.2C0 463 0 421 0 379C0 337 0 295 0 252.8C0 210.7 0 168.3 0 126.2C0 84 0 42 0 21L0 0Z" fill="#00AACF" stroke-linecap="round" stroke-linejoin="miter"></path></svg>